<svg width="196" height="199" viewBox="0 0 196 199" fill="none" xmlns="http://www.w3.org/2000/svg">
<path d="M3 22C3 20.6193 4.11929 19.5 5.5 19.5H34.5H64.0883C65.6964 19.5 67 20.8036 67 22.4117V22.4117C67 24.0198 68.3036 25.3234 69.9117 25.3234H75.5879C80.2616 25.3234 84.0773 29.0609 84.1739 33.7337L84.2772 38.7274C84.401 44.7127 89.2884 49.5 95.2749 49.5H140.17C145.553 49.5 150.144 45.6055 151.023 40.2955L152.195 33.2105C152.948 28.6605 156.882 25.3234 161.494 25.3234V25.3234C164.344 25.3234 167.04 26.6123 168.83 28.8298L193.56 59.4768C195.139 61.4331 196 63.871 196 66.3847V187.323C196 193.398 191.075 198.323 185 198.323H49.5C43.4249 198.323 38.5 193.398 38.5 187.323V177.5V167.5C38.5 161.425 33.5751 156.5 27.5 156.5H11.5C5.42487 156.5 0.5 151.575 0.5 145.5V25.75C0.5 25.0596 1.05964 24.5 1.75 24.5V24.5C2.44036 24.5 3 23.9404 3 23.25V22Z" fill="#8FBBFE"/>
<path d="M186.787 39.3C189.79 43.2978 189.79 43.2977 184.993 46.9015C180.995 49.9046 180.995 49.9047 177.992 45.9069C174.989 41.9092 174.989 41.9093 178.987 38.9061C183.784 35.3024 183.784 35.3023 186.787 39.3Z" fill="#8FBBFE"/>
<path d="M36.2907 169.326L51.5 181.379L48.5305 185.5L34.9118 174.5L31.4118 172.793L28.4118 172.293L28.6888 176.793L22.4118 176.793L22.4118 173.293L22.4118 169.293L26.9118 165.293L36.2907 169.326Z" fill="#8FBBFE"/>
<rect x="19" y="169.801" width="10" height="2" transform="rotate(-42.8532 19 169.801)" fill="#FF7272"/>
<path fill-rule="evenodd" clip-rule="evenodd" d="M124.448 88.1235C120.844 76.6062 117.097 64.6294 117.097 54.9338C117.097 64.6294 113.349 76.6062 109.745 88.1235C102.937 109.882 96.6421 130 117.097 130C137.552 130 131.256 109.882 124.448 88.1235Z" fill="#A3C6FB"/>
<path fill-rule="evenodd" clip-rule="evenodd" d="M98.4483 140.123C94.8444 128.606 91.0968 116.629 91.0968 106.934C91.0968 116.629 87.3493 128.606 83.7454 140.123C76.9372 161.882 70.6421 182 91.0969 182C111.552 182 105.256 161.882 98.4483 140.123Z" fill="#A3C6FB"/>
<path fill-rule="evenodd" clip-rule="evenodd" d="M148.448 140.123C144.844 128.606 141.097 116.629 141.097 106.934C141.097 116.629 137.349 128.606 133.745 140.123C126.937 161.882 120.642 182 141.097 182C161.552 182 155.256 161.882 148.448 140.123Z" fill="#A3C6FB"/>
<path d="M87.5 21H149L159.5 25.5L152.5 32.5L146 27.5H91L83.5 32.5L75 25.5L87.5 21Z" fill="#8FBBFE"/>
</svg>
